<mxfile host="app.diagrams.net" modified="2023-11-30T16:39:50.591Z" agent="Mozilla/5.0 (X11; Linux x86_64; rv:120.0) Gecko/20100101 Firefox/120.0" etag="a0X61gIeOFjE0NNLV0Sk" version="22.1.5" type="device">
  <diagram name="Pagina-1" id="Yt0qHgG8r23Rpl98Hr5L">
    <mxGraphModel dx="1050" dy="606" grid="1" gridSize="10" guides="1" tooltips="1" connect="1" arrows="1" fold="1" page="1" pageScale="1" pageWidth="827" pageHeight="1169" math="0" shadow="0">
      <root>
        <mxCell id="0" />
        <mxCell id="1" parent="0" />
        <mxCell id="P9rIqunZUvPBB-14v_PH-1" value="&lt;font style=&quot;font-size: 18px;&quot;&gt;at(a, l)&lt;br&gt;&lt;/font&gt;" style="text;html=1;strokeColor=none;fillColor=none;align=center;verticalAlign=middle;whiteSpace=wrap;rounded=0;fontFamily=Courier New;" vertex="1" parent="1">
          <mxGeometry x="110" y="130" width="100" height="30" as="geometry" />
        </mxCell>
        <mxCell id="P9rIqunZUvPBB-14v_PH-2" value="&lt;font style=&quot;font-size: 18px;&quot;&gt;at(b, l)&lt;br&gt;&lt;/font&gt;" style="text;html=1;strokeColor=none;fillColor=none;align=center;verticalAlign=middle;whiteSpace=wrap;rounded=0;fontFamily=Courier New;" vertex="1" parent="1">
          <mxGeometry x="110" y="210" width="100" height="30" as="geometry" />
        </mxCell>
        <mxCell id="P9rIqunZUvPBB-14v_PH-3" value="&lt;font style=&quot;font-size: 18px;&quot;&gt;at(r, l)&lt;br&gt;&lt;/font&gt;" style="text;html=1;strokeColor=none;fillColor=none;align=center;verticalAlign=middle;whiteSpace=wrap;rounded=0;fontFamily=Courier New;" vertex="1" parent="1">
          <mxGeometry x="110" y="290" width="100" height="30" as="geometry" />
        </mxCell>
        <mxCell id="P9rIqunZUvPBB-14v_PH-4" value="&lt;font style=&quot;font-size: 18px;&quot;&gt;hasFuel(r)&lt;br&gt;&lt;/font&gt;" style="text;html=1;strokeColor=none;fillColor=none;align=center;verticalAlign=middle;whiteSpace=wrap;rounded=0;fontFamily=Courier New;" vertex="1" parent="1">
          <mxGeometry x="105" y="370" width="110" height="30" as="geometry" />
        </mxCell>
        <mxCell id="P9rIqunZUvPBB-14v_PH-5" value="" style="endArrow=none;html=1;rounded=0;fontFamily=Courier New;" edge="1" parent="1">
          <mxGeometry width="50" height="50" relative="1" as="geometry">
            <mxPoint x="240" y="420" as="sourcePoint" />
            <mxPoint x="240" y="110" as="targetPoint" />
          </mxGeometry>
        </mxCell>
        <mxCell id="P9rIqunZUvPBB-14v_PH-6" value="&lt;font style=&quot;font-size: 18px;&quot;&gt;LOAD(a, r)&lt;br&gt;&lt;/font&gt;" style="text;html=1;strokeColor=none;fillColor=none;align=center;verticalAlign=middle;whiteSpace=wrap;rounded=0;fontFamily=Courier New;" vertex="1" parent="1">
          <mxGeometry x="270" y="170" width="150" height="30" as="geometry" />
        </mxCell>
        <mxCell id="P9rIqunZUvPBB-14v_PH-7" value="&lt;font style=&quot;font-size: 18px;&quot;&gt;LOAD(b, r)&lt;br&gt;&lt;/font&gt;" style="text;html=1;strokeColor=none;fillColor=none;align=center;verticalAlign=middle;whiteSpace=wrap;rounded=0;fontFamily=Courier New;" vertex="1" parent="1">
          <mxGeometry x="270" y="250" width="150" height="30" as="geometry" />
        </mxCell>
        <mxCell id="P9rIqunZUvPBB-14v_PH-8" value="&lt;font style=&quot;font-size: 18px;&quot;&gt;MOVE(r, l, p)&lt;br&gt;&lt;/font&gt;" style="text;html=1;strokeColor=none;fillColor=none;align=center;verticalAlign=middle;whiteSpace=wrap;rounded=0;fontFamily=Courier New;" vertex="1" parent="1">
          <mxGeometry x="270" y="330" width="150" height="30" as="geometry" />
        </mxCell>
        <mxCell id="P9rIqunZUvPBB-14v_PH-9" value="&lt;font style=&quot;font-size: 14px;&quot;&gt;NO-OP&lt;br style=&quot;font-size: 14px;&quot;&gt;&lt;/font&gt;" style="text;html=1;strokeColor=none;fillColor=none;align=center;verticalAlign=middle;whiteSpace=wrap;rounded=0;fontSize=14;fontFamily=Courier New;" vertex="1" parent="1">
          <mxGeometry x="305" y="130" width="80" height="30" as="geometry" />
        </mxCell>
        <mxCell id="P9rIqunZUvPBB-14v_PH-10" value="&lt;font style=&quot;font-size: 14px;&quot;&gt;NO-OP&lt;br&gt;&lt;/font&gt;" style="text;html=1;strokeColor=none;fillColor=none;align=center;verticalAlign=middle;whiteSpace=wrap;rounded=0;fontFamily=Courier New;" vertex="1" parent="1">
          <mxGeometry x="305" y="210" width="80" height="30" as="geometry" />
        </mxCell>
        <mxCell id="P9rIqunZUvPBB-14v_PH-11" value="&lt;font style=&quot;font-size: 14px;&quot;&gt;NO-OP&lt;br style=&quot;font-size: 14px;&quot;&gt;&lt;/font&gt;" style="text;html=1;strokeColor=none;fillColor=none;align=center;verticalAlign=middle;whiteSpace=wrap;rounded=0;fontSize=14;fontFamily=Courier New;" vertex="1" parent="1">
          <mxGeometry x="305" y="290" width="80" height="30" as="geometry" />
        </mxCell>
        <mxCell id="P9rIqunZUvPBB-14v_PH-12" value="&lt;font style=&quot;font-size: 14px;&quot;&gt;NO-OP&lt;br style=&quot;font-size: 14px;&quot;&gt;&lt;/font&gt;" style="text;html=1;strokeColor=none;fillColor=none;align=center;verticalAlign=middle;whiteSpace=wrap;rounded=0;fontSize=14;fontFamily=Courier New;" vertex="1" parent="1">
          <mxGeometry x="305" y="370" width="80" height="30" as="geometry" />
        </mxCell>
        <mxCell id="P9rIqunZUvPBB-14v_PH-13" value="" style="endArrow=none;html=1;rounded=0;entryX=1;entryY=0.5;entryDx=0;entryDy=0;exitX=0;exitY=0.5;exitDx=0;exitDy=0;fillColor=#f5f5f5;strokeColor=#9a9996;fontFamily=Courier New;" edge="1" parent="1" source="P9rIqunZUvPBB-14v_PH-9" target="P9rIqunZUvPBB-14v_PH-1">
          <mxGeometry width="50" height="50" relative="1" as="geometry">
            <mxPoint x="390" y="300" as="sourcePoint" />
            <mxPoint x="440" y="250" as="targetPoint" />
          </mxGeometry>
        </mxCell>
        <mxCell id="P9rIqunZUvPBB-14v_PH-14" value="" style="endArrow=none;html=1;rounded=0;fontFamily=Courier New;" edge="1" parent="1">
          <mxGeometry width="50" height="50" relative="1" as="geometry">
            <mxPoint x="440" y="420" as="sourcePoint" />
            <mxPoint x="440" y="110" as="targetPoint" />
          </mxGeometry>
        </mxCell>
        <mxCell id="P9rIqunZUvPBB-14v_PH-15" value="" style="endArrow=none;html=1;rounded=0;entryX=1;entryY=0.5;entryDx=0;entryDy=0;exitX=0;exitY=0.5;exitDx=0;exitDy=0;fillColor=#f5f5f5;strokeColor=#9a9996;fontFamily=Courier New;" edge="1" parent="1" source="P9rIqunZUvPBB-14v_PH-10" target="P9rIqunZUvPBB-14v_PH-2">
          <mxGeometry width="50" height="50" relative="1" as="geometry">
            <mxPoint x="315" y="155" as="sourcePoint" />
            <mxPoint x="220" y="155" as="targetPoint" />
          </mxGeometry>
        </mxCell>
        <mxCell id="P9rIqunZUvPBB-14v_PH-16" value="" style="endArrow=none;html=1;rounded=0;entryX=1;entryY=0.5;entryDx=0;entryDy=0;exitX=0;exitY=0.5;exitDx=0;exitDy=0;fillColor=#f5f5f5;strokeColor=#9a9996;fontFamily=Courier New;" edge="1" parent="1" source="P9rIqunZUvPBB-14v_PH-11" target="P9rIqunZUvPBB-14v_PH-3">
          <mxGeometry width="50" height="50" relative="1" as="geometry">
            <mxPoint x="315" y="235" as="sourcePoint" />
            <mxPoint x="220" y="235" as="targetPoint" />
          </mxGeometry>
        </mxCell>
        <mxCell id="P9rIqunZUvPBB-14v_PH-17" value="" style="endArrow=none;html=1;rounded=0;entryX=1;entryY=0.5;entryDx=0;entryDy=0;exitX=0;exitY=0.5;exitDx=0;exitDy=0;fillColor=#f5f5f5;strokeColor=#9a9996;fontFamily=Courier New;" edge="1" parent="1" source="P9rIqunZUvPBB-14v_PH-12" target="P9rIqunZUvPBB-14v_PH-4">
          <mxGeometry width="50" height="50" relative="1" as="geometry">
            <mxPoint x="315" y="315" as="sourcePoint" />
            <mxPoint x="220" y="315" as="targetPoint" />
          </mxGeometry>
        </mxCell>
        <mxCell id="P9rIqunZUvPBB-14v_PH-18" value="" style="endArrow=none;html=1;rounded=0;entryX=1;entryY=0.5;entryDx=0;entryDy=0;exitX=0;exitY=0.5;exitDx=0;exitDy=0;fillColor=#f5f5f5;strokeColor=#9a9996;fontFamily=Courier New;" edge="1" parent="1" source="P9rIqunZUvPBB-14v_PH-19" target="P9rIqunZUvPBB-14v_PH-9">
          <mxGeometry width="50" height="50" relative="1" as="geometry">
            <mxPoint x="315" y="155" as="sourcePoint" />
            <mxPoint x="220" y="155" as="targetPoint" />
          </mxGeometry>
        </mxCell>
        <mxCell id="P9rIqunZUvPBB-14v_PH-19" value="&lt;font style=&quot;font-size: 18px;&quot;&gt;at(a, l)&lt;br&gt;&lt;/font&gt;" style="text;html=1;strokeColor=none;fillColor=none;align=center;verticalAlign=middle;whiteSpace=wrap;rounded=0;fontFamily=Courier New;" vertex="1" parent="1">
          <mxGeometry x="480" y="130" width="100" height="30" as="geometry" />
        </mxCell>
        <mxCell id="P9rIqunZUvPBB-14v_PH-20" value="&lt;font style=&quot;font-size: 18px;&quot;&gt;at(b, l)&lt;br&gt;&lt;/font&gt;" style="text;html=1;strokeColor=none;fillColor=none;align=center;verticalAlign=middle;whiteSpace=wrap;rounded=0;fontFamily=Courier New;" vertex="1" parent="1">
          <mxGeometry x="480" y="210" width="100" height="30" as="geometry" />
        </mxCell>
        <mxCell id="P9rIqunZUvPBB-14v_PH-21" value="&lt;font style=&quot;font-size: 18px;&quot;&gt;at(r, l)&lt;br&gt;&lt;/font&gt;" style="text;html=1;strokeColor=none;fillColor=none;align=center;verticalAlign=middle;whiteSpace=wrap;rounded=0;fontFamily=Courier New;" vertex="1" parent="1">
          <mxGeometry x="480" y="290" width="100" height="30" as="geometry" />
        </mxCell>
        <mxCell id="P9rIqunZUvPBB-14v_PH-22" value="&lt;font style=&quot;font-size: 18px;&quot;&gt;hasFuel(r)&lt;br&gt;&lt;/font&gt;" style="text;html=1;strokeColor=none;fillColor=none;align=center;verticalAlign=middle;whiteSpace=wrap;rounded=0;fontFamily=Courier New;" vertex="1" parent="1">
          <mxGeometry x="475" y="370" width="110" height="30" as="geometry" />
        </mxCell>
        <mxCell id="P9rIqunZUvPBB-14v_PH-23" value="" style="endArrow=none;html=1;rounded=0;entryX=1;entryY=0.5;entryDx=0;entryDy=0;exitX=0;exitY=0.5;exitDx=0;exitDy=0;fillColor=#f5f5f5;strokeColor=#9a9996;fontFamily=Courier New;" edge="1" parent="1" source="P9rIqunZUvPBB-14v_PH-20" target="P9rIqunZUvPBB-14v_PH-10">
          <mxGeometry width="50" height="50" relative="1" as="geometry">
            <mxPoint x="315" y="235" as="sourcePoint" />
            <mxPoint x="220" y="235" as="targetPoint" />
          </mxGeometry>
        </mxCell>
        <mxCell id="P9rIqunZUvPBB-14v_PH-24" value="" style="endArrow=none;html=1;rounded=0;entryX=1;entryY=0.5;entryDx=0;entryDy=0;exitX=0;exitY=0.5;exitDx=0;exitDy=0;fillColor=#f5f5f5;strokeColor=#9a9996;fontFamily=Courier New;" edge="1" parent="1" source="P9rIqunZUvPBB-14v_PH-21" target="P9rIqunZUvPBB-14v_PH-11">
          <mxGeometry width="50" height="50" relative="1" as="geometry">
            <mxPoint x="315" y="315" as="sourcePoint" />
            <mxPoint x="220" y="315" as="targetPoint" />
          </mxGeometry>
        </mxCell>
        <mxCell id="P9rIqunZUvPBB-14v_PH-25" value="" style="endArrow=none;html=1;rounded=0;entryX=0;entryY=0.5;entryDx=0;entryDy=0;exitX=1;exitY=0.5;exitDx=0;exitDy=0;fillColor=#f5f5f5;strokeColor=#9a9996;fontFamily=Courier New;" edge="1" parent="1" source="P9rIqunZUvPBB-14v_PH-12" target="P9rIqunZUvPBB-14v_PH-22">
          <mxGeometry width="50" height="50" relative="1" as="geometry">
            <mxPoint x="315" y="395" as="sourcePoint" />
            <mxPoint x="225" y="395" as="targetPoint" />
          </mxGeometry>
        </mxCell>
        <mxCell id="P9rIqunZUvPBB-14v_PH-26" value="" style="endArrow=none;html=1;rounded=0;entryX=1;entryY=0.5;entryDx=0;entryDy=0;exitX=0;exitY=0.5;exitDx=0;exitDy=0;fillColor=#f8cecc;strokeColor=#e01b24;fontFamily=Courier New;" edge="1" parent="1" source="P9rIqunZUvPBB-14v_PH-6" target="P9rIqunZUvPBB-14v_PH-1">
          <mxGeometry width="50" height="50" relative="1" as="geometry">
            <mxPoint x="390" y="330" as="sourcePoint" />
            <mxPoint x="440" y="280" as="targetPoint" />
          </mxGeometry>
        </mxCell>
        <mxCell id="P9rIqunZUvPBB-14v_PH-27" value="" style="endArrow=none;html=1;rounded=0;entryX=1;entryY=0.5;entryDx=0;entryDy=0;exitX=0;exitY=0.5;exitDx=0;exitDy=0;fillColor=#f8cecc;strokeColor=#e01b24;fontFamily=Courier New;" edge="1" parent="1" source="P9rIqunZUvPBB-14v_PH-6" target="P9rIqunZUvPBB-14v_PH-3">
          <mxGeometry width="50" height="50" relative="1" as="geometry">
            <mxPoint x="280" y="195" as="sourcePoint" />
            <mxPoint x="220" y="155" as="targetPoint" />
          </mxGeometry>
        </mxCell>
        <mxCell id="P9rIqunZUvPBB-14v_PH-28" value="" style="endArrow=none;html=1;rounded=0;strokeColor=#33d17a;entryX=1;entryY=0.5;entryDx=0;entryDy=0;exitX=0;exitY=0.5;exitDx=0;exitDy=0;fontFamily=Courier New;" edge="1" parent="1" source="P9rIqunZUvPBB-14v_PH-7" target="P9rIqunZUvPBB-14v_PH-2">
          <mxGeometry width="50" height="50" relative="1" as="geometry">
            <mxPoint x="390" y="330" as="sourcePoint" />
            <mxPoint x="440" y="280" as="targetPoint" />
          </mxGeometry>
        </mxCell>
        <mxCell id="P9rIqunZUvPBB-14v_PH-29" value="" style="endArrow=none;html=1;rounded=0;strokeColor=#33d17a;entryX=1;entryY=0.5;entryDx=0;entryDy=0;exitX=0;exitY=0.5;exitDx=0;exitDy=0;fontFamily=Courier New;" edge="1" parent="1" source="P9rIqunZUvPBB-14v_PH-7" target="P9rIqunZUvPBB-14v_PH-3">
          <mxGeometry width="50" height="50" relative="1" as="geometry">
            <mxPoint x="280" y="275" as="sourcePoint" />
            <mxPoint x="220" y="235" as="targetPoint" />
          </mxGeometry>
        </mxCell>
        <mxCell id="P9rIqunZUvPBB-14v_PH-30" value="" style="endArrow=none;html=1;rounded=0;exitX=1;exitY=0.5;exitDx=0;exitDy=0;entryX=0;entryY=0.5;entryDx=0;entryDy=0;strokeColor=#3584e4;fontFamily=Courier New;" edge="1" parent="1" source="P9rIqunZUvPBB-14v_PH-3" target="P9rIqunZUvPBB-14v_PH-8">
          <mxGeometry width="50" height="50" relative="1" as="geometry">
            <mxPoint x="390" y="330" as="sourcePoint" />
            <mxPoint x="440" y="280" as="targetPoint" />
          </mxGeometry>
        </mxCell>
        <mxCell id="P9rIqunZUvPBB-14v_PH-31" value="" style="endArrow=none;html=1;rounded=0;exitX=1;exitY=0.5;exitDx=0;exitDy=0;entryX=0;entryY=0.5;entryDx=0;entryDy=0;strokeColor=#3584e4;fontFamily=Courier New;" edge="1" parent="1" source="P9rIqunZUvPBB-14v_PH-4" target="P9rIqunZUvPBB-14v_PH-8">
          <mxGeometry width="50" height="50" relative="1" as="geometry">
            <mxPoint x="220" y="315" as="sourcePoint" />
            <mxPoint x="280" y="355" as="targetPoint" />
          </mxGeometry>
        </mxCell>
        <mxCell id="P9rIqunZUvPBB-14v_PH-32" value="&lt;font style=&quot;font-size: 18px;&quot;&gt;in(r, a)&lt;br&gt;&lt;/font&gt;" style="text;html=1;strokeColor=none;fillColor=none;align=center;verticalAlign=middle;whiteSpace=wrap;rounded=0;fontFamily=Courier New;" vertex="1" parent="1">
          <mxGeometry x="480" y="170" width="100" height="30" as="geometry" />
        </mxCell>
        <mxCell id="P9rIqunZUvPBB-14v_PH-33" value="&lt;font style=&quot;font-size: 18px;&quot;&gt;in(r, b)&lt;br&gt;&lt;/font&gt;" style="text;html=1;strokeColor=none;fillColor=none;align=center;verticalAlign=middle;whiteSpace=wrap;rounded=0;fontFamily=Courier New;" vertex="1" parent="1">
          <mxGeometry x="480" y="250" width="100" height="30" as="geometry" />
        </mxCell>
        <mxCell id="P9rIqunZUvPBB-14v_PH-34" value="&lt;font style=&quot;font-size: 18px;&quot;&gt;at(r, p)&lt;br&gt;&lt;/font&gt;" style="text;html=1;strokeColor=none;fillColor=none;align=center;verticalAlign=middle;whiteSpace=wrap;rounded=0;fontFamily=Courier New;" vertex="1" parent="1">
          <mxGeometry x="480" y="330" width="100" height="30" as="geometry" />
        </mxCell>
        <mxCell id="P9rIqunZUvPBB-14v_PH-35" value="" style="endArrow=none;html=1;rounded=0;entryX=1;entryY=0.5;entryDx=0;entryDy=0;exitX=0;exitY=0.5;exitDx=0;exitDy=0;fillColor=#f8cecc;strokeColor=#e01b24;fontFamily=Courier New;" edge="1" parent="1" source="P9rIqunZUvPBB-14v_PH-32" target="P9rIqunZUvPBB-14v_PH-6">
          <mxGeometry width="50" height="50" relative="1" as="geometry">
            <mxPoint x="280" y="195" as="sourcePoint" />
            <mxPoint x="220" y="155" as="targetPoint" />
          </mxGeometry>
        </mxCell>
        <mxCell id="P9rIqunZUvPBB-14v_PH-36" value="" style="endArrow=none;html=1;rounded=0;entryX=1;entryY=0.5;entryDx=0;entryDy=0;exitX=0;exitY=0.5;exitDx=0;exitDy=0;fillColor=#f8cecc;strokeColor=#e01b24;dashed=1;fontFamily=Courier New;" edge="1" parent="1" source="P9rIqunZUvPBB-14v_PH-19" target="P9rIqunZUvPBB-14v_PH-6">
          <mxGeometry width="50" height="50" relative="1" as="geometry">
            <mxPoint x="490" y="195" as="sourcePoint" />
            <mxPoint x="430" y="195" as="targetPoint" />
          </mxGeometry>
        </mxCell>
        <mxCell id="P9rIqunZUvPBB-14v_PH-37" value="" style="endArrow=none;html=1;rounded=0;strokeColor=#33d17a;entryX=1;entryY=0.5;entryDx=0;entryDy=0;exitX=0;exitY=0.5;exitDx=0;exitDy=0;dashed=1;fontFamily=Courier New;" edge="1" parent="1" source="P9rIqunZUvPBB-14v_PH-20" target="P9rIqunZUvPBB-14v_PH-7">
          <mxGeometry width="50" height="50" relative="1" as="geometry">
            <mxPoint x="280" y="275" as="sourcePoint" />
            <mxPoint x="220" y="235" as="targetPoint" />
          </mxGeometry>
        </mxCell>
        <mxCell id="P9rIqunZUvPBB-14v_PH-38" value="" style="endArrow=none;html=1;rounded=0;strokeColor=#33d17a;entryX=1;entryY=0.5;entryDx=0;entryDy=0;exitX=0;exitY=0.5;exitDx=0;exitDy=0;fontFamily=Courier New;" edge="1" parent="1" source="P9rIqunZUvPBB-14v_PH-33" target="P9rIqunZUvPBB-14v_PH-7">
          <mxGeometry width="50" height="50" relative="1" as="geometry">
            <mxPoint x="490" y="235" as="sourcePoint" />
            <mxPoint x="430" y="275" as="targetPoint" />
          </mxGeometry>
        </mxCell>
        <mxCell id="P9rIqunZUvPBB-14v_PH-39" value="" style="endArrow=none;html=1;rounded=0;exitX=0;exitY=0.5;exitDx=0;exitDy=0;entryX=1;entryY=0.5;entryDx=0;entryDy=0;strokeColor=#3584e4;dashed=1;fontFamily=Courier New;" edge="1" parent="1" source="P9rIqunZUvPBB-14v_PH-21" target="P9rIqunZUvPBB-14v_PH-8">
          <mxGeometry width="50" height="50" relative="1" as="geometry">
            <mxPoint x="220" y="315" as="sourcePoint" />
            <mxPoint x="280" y="355" as="targetPoint" />
          </mxGeometry>
        </mxCell>
        <mxCell id="P9rIqunZUvPBB-14v_PH-40" value="" style="endArrow=none;html=1;rounded=0;exitX=0;exitY=0.5;exitDx=0;exitDy=0;entryX=1;entryY=0.5;entryDx=0;entryDy=0;strokeColor=#3584e4;fontFamily=Courier New;" edge="1" parent="1" source="P9rIqunZUvPBB-14v_PH-34" target="P9rIqunZUvPBB-14v_PH-8">
          <mxGeometry width="50" height="50" relative="1" as="geometry">
            <mxPoint x="490" y="315" as="sourcePoint" />
            <mxPoint x="430" y="355" as="targetPoint" />
          </mxGeometry>
        </mxCell>
        <mxCell id="P9rIqunZUvPBB-14v_PH-41" value="" style="endArrow=none;html=1;rounded=0;exitX=0;exitY=0.5;exitDx=0;exitDy=0;entryX=1;entryY=0.5;entryDx=0;entryDy=0;strokeColor=#3584e4;dashed=1;fontFamily=Courier New;" edge="1" parent="1" source="P9rIqunZUvPBB-14v_PH-22" target="P9rIqunZUvPBB-14v_PH-8">
          <mxGeometry width="50" height="50" relative="1" as="geometry">
            <mxPoint x="490" y="355" as="sourcePoint" />
            <mxPoint x="430" y="355" as="targetPoint" />
          </mxGeometry>
        </mxCell>
        <mxCell id="P9rIqunZUvPBB-14v_PH-42" value="&lt;font style=&quot;font-size: 12px;&quot;&gt;NO-OP&lt;br style=&quot;font-size: 12px;&quot;&gt;&lt;/font&gt;" style="text;html=1;strokeColor=none;fillColor=none;align=center;verticalAlign=middle;whiteSpace=wrap;rounded=0;fontSize=12;fontFamily=Courier New;" vertex="1" parent="1">
          <mxGeometry x="680" y="290" width="80" height="30" as="geometry" />
        </mxCell>
        <mxCell id="P9rIqunZUvPBB-14v_PH-43" value="" style="endArrow=none;html=1;rounded=0;fontFamily=Courier New;" edge="1" parent="1">
          <mxGeometry width="50" height="50" relative="1" as="geometry">
            <mxPoint x="620" y="420" as="sourcePoint" />
            <mxPoint x="620" y="110" as="targetPoint" />
          </mxGeometry>
        </mxCell>
        <mxCell id="P9rIqunZUvPBB-14v_PH-44" value="&lt;font style=&quot;font-size: 12px;&quot;&gt;NO-OP&lt;br style=&quot;font-size: 12px;&quot;&gt;&lt;/font&gt;" style="text;html=1;strokeColor=none;fillColor=none;align=center;verticalAlign=middle;whiteSpace=wrap;rounded=0;fontSize=12;fontFamily=Courier New;" vertex="1" parent="1">
          <mxGeometry x="680" y="330" width="80" height="30" as="geometry" />
        </mxCell>
        <mxCell id="P9rIqunZUvPBB-14v_PH-45" value="&lt;font style=&quot;font-size: 12px;&quot;&gt;NO-OP&lt;br style=&quot;font-size: 12px;&quot;&gt;&lt;/font&gt;" style="text;html=1;strokeColor=none;fillColor=none;align=center;verticalAlign=middle;whiteSpace=wrap;rounded=0;fontSize=12;fontFamily=Courier New;" vertex="1" parent="1">
          <mxGeometry x="680" y="370" width="80" height="30" as="geometry" />
        </mxCell>
        <mxCell id="P9rIqunZUvPBB-14v_PH-46" value="&lt;font style=&quot;font-size: 12px;&quot;&gt;NO-OP&lt;br style=&quot;font-size: 12px;&quot;&gt;&lt;/font&gt;" style="text;html=1;strokeColor=none;fillColor=none;align=center;verticalAlign=middle;whiteSpace=wrap;rounded=0;fontSize=12;fontFamily=Courier New;" vertex="1" parent="1">
          <mxGeometry x="680" y="250" width="80" height="30" as="geometry" />
        </mxCell>
        <mxCell id="P9rIqunZUvPBB-14v_PH-47" value="&lt;font style=&quot;font-size: 12px;&quot;&gt;NO-OP&lt;br style=&quot;font-size: 12px;&quot;&gt;&lt;/font&gt;" style="text;html=1;strokeColor=none;fillColor=none;align=center;verticalAlign=middle;whiteSpace=wrap;rounded=0;fontSize=12;fontFamily=Courier New;" vertex="1" parent="1">
          <mxGeometry x="680" y="210" width="80" height="30" as="geometry" />
        </mxCell>
        <mxCell id="P9rIqunZUvPBB-14v_PH-48" value="&lt;font style=&quot;font-size: 12px;&quot;&gt;NO-OP&lt;br style=&quot;font-size: 12px;&quot;&gt;&lt;/font&gt;" style="text;html=1;strokeColor=none;fillColor=none;align=center;verticalAlign=middle;whiteSpace=wrap;rounded=0;fontSize=12;fontFamily=Courier New;" vertex="1" parent="1">
          <mxGeometry x="680" y="170" width="80" height="30" as="geometry" />
        </mxCell>
        <mxCell id="P9rIqunZUvPBB-14v_PH-49" value="&lt;font style=&quot;font-size: 12px;&quot;&gt;NO-OP&lt;br style=&quot;font-size: 12px;&quot;&gt;&lt;/font&gt;" style="text;html=1;strokeColor=none;fillColor=none;align=center;verticalAlign=middle;whiteSpace=wrap;rounded=0;fontSize=12;fontFamily=Courier New;" vertex="1" parent="1">
          <mxGeometry x="680" y="130" width="80" height="30" as="geometry" />
        </mxCell>
        <mxCell id="P9rIqunZUvPBB-14v_PH-50" value="" style="endArrow=none;html=1;rounded=0;fontFamily=Courier New;" edge="1" parent="1">
          <mxGeometry width="50" height="50" relative="1" as="geometry">
            <mxPoint x="827" y="420" as="sourcePoint" />
            <mxPoint x="827" y="110" as="targetPoint" />
          </mxGeometry>
        </mxCell>
        <mxCell id="P9rIqunZUvPBB-14v_PH-51" value="&lt;font style=&quot;font-size: 16px;&quot;&gt;LOAD(a, l)&lt;br style=&quot;font-size: 16px;&quot;&gt;&lt;/font&gt;" style="text;html=1;strokeColor=none;fillColor=none;align=center;verticalAlign=middle;whiteSpace=wrap;rounded=0;fontSize=16;fontFamily=Courier New;" vertex="1" parent="1">
          <mxGeometry x="650" y="150" width="150" height="30" as="geometry" />
        </mxCell>
        <mxCell id="P9rIqunZUvPBB-14v_PH-52" value="&lt;font style=&quot;font-size: 16px;&quot;&gt;LOAD(b, l)&lt;br style=&quot;font-size: 16px;&quot;&gt;&lt;/font&gt;" style="text;html=1;strokeColor=none;fillColor=none;align=center;verticalAlign=middle;whiteSpace=wrap;rounded=0;fontSize=16;fontFamily=Courier New;" vertex="1" parent="1">
          <mxGeometry x="650" y="230" width="150" height="30" as="geometry" />
        </mxCell>
        <mxCell id="P9rIqunZUvPBB-14v_PH-53" value="&lt;font style=&quot;font-size: 16px;&quot;&gt;MOVE(r, l, p)&lt;br style=&quot;font-size: 16px;&quot;&gt;&lt;/font&gt;" style="text;html=1;strokeColor=none;fillColor=none;align=center;verticalAlign=middle;whiteSpace=wrap;rounded=0;fontFamily=Courier New;fontSize=16;" vertex="1" parent="1">
          <mxGeometry x="650" y="350" width="150" height="30" as="geometry" />
        </mxCell>
        <mxCell id="P9rIqunZUvPBB-14v_PH-54" value="UN&lt;font style=&quot;font-size: 16px;&quot;&gt;LOAD(a, l)&lt;br style=&quot;font-size: 16px;&quot;&gt;&lt;/font&gt;" style="text;html=1;strokeColor=none;fillColor=none;align=center;verticalAlign=middle;whiteSpace=wrap;rounded=0;fontSize=16;fontFamily=Courier New;" vertex="1" parent="1">
          <mxGeometry x="645" y="190" width="150" height="30" as="geometry" />
        </mxCell>
        <mxCell id="P9rIqunZUvPBB-14v_PH-55" value="UN&lt;font style=&quot;font-size: 16px;&quot;&gt;LOAD(b, l)&lt;br style=&quot;font-size: 16px;&quot;&gt;&lt;/font&gt;" style="text;html=1;strokeColor=none;fillColor=none;align=center;verticalAlign=middle;whiteSpace=wrap;rounded=0;fontSize=16;fontFamily=Courier New;" vertex="1" parent="1">
          <mxGeometry x="650" y="270" width="150" height="30" as="geometry" />
        </mxCell>
        <mxCell id="P9rIqunZUvPBB-14v_PH-56" value="&lt;font style=&quot;font-size: 18px;&quot;&gt;at(a, l)&lt;br&gt;&lt;/font&gt;" style="text;html=1;strokeColor=none;fillColor=none;align=center;verticalAlign=middle;whiteSpace=wrap;rounded=0;fontFamily=Courier New;" vertex="1" parent="1">
          <mxGeometry x="865" y="130" width="100" height="30" as="geometry" />
        </mxCell>
        <mxCell id="P9rIqunZUvPBB-14v_PH-57" value="&lt;font style=&quot;font-size: 18px;&quot;&gt;at(b, l)&lt;br&gt;&lt;/font&gt;" style="text;html=1;strokeColor=none;fillColor=none;align=center;verticalAlign=middle;whiteSpace=wrap;rounded=0;fontFamily=Courier New;" vertex="1" parent="1">
          <mxGeometry x="865" y="210" width="100" height="30" as="geometry" />
        </mxCell>
        <mxCell id="P9rIqunZUvPBB-14v_PH-58" value="&lt;font style=&quot;font-size: 18px;&quot;&gt;at(r, l)&lt;br&gt;&lt;/font&gt;" style="text;html=1;strokeColor=none;fillColor=none;align=center;verticalAlign=middle;whiteSpace=wrap;rounded=0;fontFamily=Courier New;" vertex="1" parent="1">
          <mxGeometry x="865" y="290" width="100" height="30" as="geometry" />
        </mxCell>
        <mxCell id="P9rIqunZUvPBB-14v_PH-59" value="&lt;font style=&quot;font-size: 18px;&quot;&gt;hasFuel(r)&lt;br&gt;&lt;/font&gt;" style="text;html=1;strokeColor=none;fillColor=none;align=center;verticalAlign=middle;whiteSpace=wrap;rounded=0;fontFamily=Courier New;" vertex="1" parent="1">
          <mxGeometry x="860" y="370" width="110" height="30" as="geometry" />
        </mxCell>
        <mxCell id="P9rIqunZUvPBB-14v_PH-60" value="&lt;font style=&quot;font-size: 18px;&quot;&gt;in(r, a)&lt;br&gt;&lt;/font&gt;" style="text;html=1;strokeColor=none;fillColor=none;align=center;verticalAlign=middle;whiteSpace=wrap;rounded=0;fontFamily=Courier New;" vertex="1" parent="1">
          <mxGeometry x="865" y="170" width="100" height="30" as="geometry" />
        </mxCell>
        <mxCell id="P9rIqunZUvPBB-14v_PH-61" value="&lt;font style=&quot;font-size: 18px;&quot;&gt;in(r, b)&lt;br&gt;&lt;/font&gt;" style="text;html=1;strokeColor=none;fillColor=none;align=center;verticalAlign=middle;whiteSpace=wrap;rounded=0;fontFamily=Courier New;" vertex="1" parent="1">
          <mxGeometry x="865" y="250" width="100" height="30" as="geometry" />
        </mxCell>
        <mxCell id="P9rIqunZUvPBB-14v_PH-62" value="&lt;font style=&quot;font-size: 18px;&quot;&gt;at(r, p)&lt;br&gt;&lt;/font&gt;" style="text;html=1;strokeColor=none;fillColor=none;align=center;verticalAlign=middle;whiteSpace=wrap;rounded=0;fontFamily=Courier New;" vertex="1" parent="1">
          <mxGeometry x="865" y="330" width="100" height="30" as="geometry" />
        </mxCell>
        <mxCell id="P9rIqunZUvPBB-14v_PH-63" value="" style="endArrow=none;html=1;rounded=0;entryX=0;entryY=0.5;entryDx=0;entryDy=0;exitX=1;exitY=0.5;exitDx=0;exitDy=0;fillColor=#f5f5f5;strokeColor=#9a9996;fontFamily=Courier New;" edge="1" parent="1" source="P9rIqunZUvPBB-14v_PH-19" target="P9rIqunZUvPBB-14v_PH-49">
          <mxGeometry width="50" height="50" relative="1" as="geometry">
            <mxPoint x="490" y="155" as="sourcePoint" />
            <mxPoint x="395" y="155" as="targetPoint" />
          </mxGeometry>
        </mxCell>
        <mxCell id="P9rIqunZUvPBB-14v_PH-64" value="" style="endArrow=none;html=1;rounded=0;exitX=1;exitY=0.5;exitDx=0;exitDy=0;fillColor=#f5f5f5;strokeColor=#9a9996;fontFamily=Courier New;entryX=0;entryY=0.5;entryDx=0;entryDy=0;" edge="1" parent="1" source="P9rIqunZUvPBB-14v_PH-32" target="P9rIqunZUvPBB-14v_PH-48">
          <mxGeometry width="50" height="50" relative="1" as="geometry">
            <mxPoint x="585" y="184.57999999999998" as="sourcePoint" />
            <mxPoint x="650" y="185" as="targetPoint" />
          </mxGeometry>
        </mxCell>
        <mxCell id="P9rIqunZUvPBB-14v_PH-65" value="" style="endArrow=none;html=1;rounded=0;exitX=1;exitY=0.5;exitDx=0;exitDy=0;fillColor=#f5f5f5;strokeColor=#9a9996;fontFamily=Courier New;entryX=0;entryY=0.5;entryDx=0;entryDy=0;" edge="1" parent="1">
          <mxGeometry width="50" height="50" relative="1" as="geometry">
            <mxPoint x="580" y="224.57999999999998" as="sourcePoint" />
            <mxPoint x="680" y="224.57999999999998" as="targetPoint" />
          </mxGeometry>
        </mxCell>
        <mxCell id="P9rIqunZUvPBB-14v_PH-66" value="" style="endArrow=none;html=1;rounded=0;exitX=1;exitY=0.5;exitDx=0;exitDy=0;fillColor=#f5f5f5;strokeColor=#9a9996;fontFamily=Courier New;entryX=0;entryY=0.5;entryDx=0;entryDy=0;" edge="1" parent="1">
          <mxGeometry width="50" height="50" relative="1" as="geometry">
            <mxPoint x="580" y="264.58" as="sourcePoint" />
            <mxPoint x="680" y="264.58" as="targetPoint" />
          </mxGeometry>
        </mxCell>
        <mxCell id="P9rIqunZUvPBB-14v_PH-67" value="" style="endArrow=none;html=1;rounded=0;exitX=1;exitY=0.5;exitDx=0;exitDy=0;fillColor=#f5f5f5;strokeColor=#9a9996;fontFamily=Courier New;entryX=0;entryY=0.5;entryDx=0;entryDy=0;" edge="1" parent="1">
          <mxGeometry width="50" height="50" relative="1" as="geometry">
            <mxPoint x="580" y="304.58" as="sourcePoint" />
            <mxPoint x="680" y="304.58" as="targetPoint" />
          </mxGeometry>
        </mxCell>
        <mxCell id="P9rIqunZUvPBB-14v_PH-68" value="" style="endArrow=none;html=1;rounded=0;exitX=1;exitY=0.5;exitDx=0;exitDy=0;fillColor=#f5f5f5;strokeColor=#9a9996;fontFamily=Courier New;entryX=0;entryY=0.5;entryDx=0;entryDy=0;" edge="1" parent="1">
          <mxGeometry width="50" height="50" relative="1" as="geometry">
            <mxPoint x="580" y="344.58" as="sourcePoint" />
            <mxPoint x="680" y="344.58" as="targetPoint" />
          </mxGeometry>
        </mxCell>
        <mxCell id="P9rIqunZUvPBB-14v_PH-69" value="" style="endArrow=none;html=1;rounded=0;exitX=1;exitY=0.5;exitDx=0;exitDy=0;fillColor=#f5f5f5;strokeColor=#9a9996;fontFamily=Courier New;entryX=0;entryY=0.5;entryDx=0;entryDy=0;" edge="1" parent="1" source="P9rIqunZUvPBB-14v_PH-22" target="P9rIqunZUvPBB-14v_PH-45">
          <mxGeometry width="50" height="50" relative="1" as="geometry">
            <mxPoint x="585" y="384.58" as="sourcePoint" />
            <mxPoint x="685" y="384.58" as="targetPoint" />
          </mxGeometry>
        </mxCell>
        <mxCell id="P9rIqunZUvPBB-14v_PH-70" value="" style="endArrow=none;html=1;rounded=0;entryX=0;entryY=0.5;entryDx=0;entryDy=0;exitX=1;exitY=0.5;exitDx=0;exitDy=0;fillColor=#f5f5f5;strokeColor=#9a9996;fontFamily=Courier New;" edge="1" parent="1" source="P9rIqunZUvPBB-14v_PH-49" target="P9rIqunZUvPBB-14v_PH-56">
          <mxGeometry width="50" height="50" relative="1" as="geometry">
            <mxPoint x="590" y="155" as="sourcePoint" />
            <mxPoint x="690" y="155" as="targetPoint" />
          </mxGeometry>
        </mxCell>
        <mxCell id="P9rIqunZUvPBB-14v_PH-71" value="" style="endArrow=none;html=1;rounded=0;entryX=0;entryY=0.5;entryDx=0;entryDy=0;exitX=1;exitY=0.5;exitDx=0;exitDy=0;fillColor=#f5f5f5;strokeColor=#9a9996;fontFamily=Courier New;" edge="1" parent="1">
          <mxGeometry width="50" height="50" relative="1" as="geometry">
            <mxPoint x="760" y="184.57999999999998" as="sourcePoint" />
            <mxPoint x="865" y="184.57999999999998" as="targetPoint" />
          </mxGeometry>
        </mxCell>
        <mxCell id="P9rIqunZUvPBB-14v_PH-72" value="" style="endArrow=none;html=1;rounded=0;entryX=0;entryY=0.5;entryDx=0;entryDy=0;exitX=1;exitY=0.5;exitDx=0;exitDy=0;fillColor=#f5f5f5;strokeColor=#9a9996;fontFamily=Courier New;" edge="1" parent="1">
          <mxGeometry width="50" height="50" relative="1" as="geometry">
            <mxPoint x="760" y="224.57999999999998" as="sourcePoint" />
            <mxPoint x="865" y="224.57999999999998" as="targetPoint" />
          </mxGeometry>
        </mxCell>
        <mxCell id="P9rIqunZUvPBB-14v_PH-73" value="" style="endArrow=none;html=1;rounded=0;entryX=0;entryY=0.5;entryDx=0;entryDy=0;exitX=1;exitY=0.5;exitDx=0;exitDy=0;fillColor=#f5f5f5;strokeColor=#9a9996;fontFamily=Courier New;" edge="1" parent="1">
          <mxGeometry width="50" height="50" relative="1" as="geometry">
            <mxPoint x="760" y="264.58" as="sourcePoint" />
            <mxPoint x="865" y="264.58" as="targetPoint" />
          </mxGeometry>
        </mxCell>
        <mxCell id="P9rIqunZUvPBB-14v_PH-74" value="" style="endArrow=none;html=1;rounded=0;entryX=0;entryY=0.5;entryDx=0;entryDy=0;exitX=1;exitY=0.5;exitDx=0;exitDy=0;fillColor=#f5f5f5;strokeColor=#9a9996;fontFamily=Courier New;" edge="1" parent="1">
          <mxGeometry width="50" height="50" relative="1" as="geometry">
            <mxPoint x="760" y="304.58" as="sourcePoint" />
            <mxPoint x="865" y="304.58" as="targetPoint" />
          </mxGeometry>
        </mxCell>
        <mxCell id="P9rIqunZUvPBB-14v_PH-75" value="" style="endArrow=none;html=1;rounded=0;entryX=0;entryY=0.5;entryDx=0;entryDy=0;exitX=1;exitY=0.5;exitDx=0;exitDy=0;fillColor=#f5f5f5;strokeColor=#9a9996;fontFamily=Courier New;" edge="1" parent="1">
          <mxGeometry width="50" height="50" relative="1" as="geometry">
            <mxPoint x="760" y="344.58" as="sourcePoint" />
            <mxPoint x="865" y="344.58" as="targetPoint" />
          </mxGeometry>
        </mxCell>
        <mxCell id="P9rIqunZUvPBB-14v_PH-76" value="" style="endArrow=none;html=1;rounded=0;entryX=0;entryY=0.5;entryDx=0;entryDy=0;exitX=1;exitY=0.5;exitDx=0;exitDy=0;fillColor=#f5f5f5;strokeColor=#9a9996;fontFamily=Courier New;" edge="1" parent="1" source="P9rIqunZUvPBB-14v_PH-45" target="P9rIqunZUvPBB-14v_PH-59">
          <mxGeometry width="50" height="50" relative="1" as="geometry">
            <mxPoint x="760" y="384.58" as="sourcePoint" />
            <mxPoint x="865" y="384.58" as="targetPoint" />
          </mxGeometry>
        </mxCell>
        <mxCell id="P9rIqunZUvPBB-14v_PH-77" value="" style="endArrow=none;html=1;rounded=0;entryX=1;entryY=0.5;entryDx=0;entryDy=0;exitX=0;exitY=0.5;exitDx=0;exitDy=0;fillColor=#f8cecc;strokeColor=#e01b24;fontFamily=Courier New;" edge="1" parent="1" source="P9rIqunZUvPBB-14v_PH-51" target="P9rIqunZUvPBB-14v_PH-19">
          <mxGeometry width="50" height="50" relative="1" as="geometry">
            <mxPoint x="490" y="195" as="sourcePoint" />
            <mxPoint x="430" y="195" as="targetPoint" />
          </mxGeometry>
        </mxCell>
        <mxCell id="P9rIqunZUvPBB-14v_PH-78" value="" style="endArrow=none;html=1;rounded=0;entryX=1;entryY=0.5;entryDx=0;entryDy=0;exitX=0;exitY=0.5;exitDx=0;exitDy=0;fillColor=#f8cecc;strokeColor=#e01b24;fontFamily=Courier New;" edge="1" parent="1" source="P9rIqunZUvPBB-14v_PH-51" target="P9rIqunZUvPBB-14v_PH-21">
          <mxGeometry width="50" height="50" relative="1" as="geometry">
            <mxPoint x="660" y="175" as="sourcePoint" />
            <mxPoint x="590" y="155" as="targetPoint" />
          </mxGeometry>
        </mxCell>
        <mxCell id="P9rIqunZUvPBB-14v_PH-79" value="" style="endArrow=none;html=1;rounded=0;strokeColor=#33d17a;entryX=1;entryY=0.5;entryDx=0;entryDy=0;exitX=0;exitY=0.5;exitDx=0;exitDy=0;fontFamily=Courier New;" edge="1" parent="1" source="P9rIqunZUvPBB-14v_PH-52" target="P9rIqunZUvPBB-14v_PH-20">
          <mxGeometry width="50" height="50" relative="1" as="geometry">
            <mxPoint x="490" y="275" as="sourcePoint" />
            <mxPoint x="430" y="275" as="targetPoint" />
          </mxGeometry>
        </mxCell>
        <mxCell id="P9rIqunZUvPBB-14v_PH-80" value="" style="endArrow=none;html=1;rounded=0;strokeColor=#33d17a;entryX=1;entryY=0.5;entryDx=0;entryDy=0;exitX=0;exitY=0.5;exitDx=0;exitDy=0;fontFamily=Courier New;" edge="1" parent="1" source="P9rIqunZUvPBB-14v_PH-52" target="P9rIqunZUvPBB-14v_PH-21">
          <mxGeometry width="50" height="50" relative="1" as="geometry">
            <mxPoint x="660" y="215" as="sourcePoint" />
            <mxPoint x="590" y="235" as="targetPoint" />
          </mxGeometry>
        </mxCell>
        <mxCell id="P9rIqunZUvPBB-14v_PH-81" value="" style="endArrow=none;html=1;rounded=0;exitX=0;exitY=0.5;exitDx=0;exitDy=0;entryX=1;entryY=0.5;entryDx=0;entryDy=0;strokeColor=#3584e4;fontFamily=Courier New;" edge="1" parent="1" source="P9rIqunZUvPBB-14v_PH-53" target="P9rIqunZUvPBB-14v_PH-22">
          <mxGeometry width="50" height="50" relative="1" as="geometry">
            <mxPoint x="490" y="355" as="sourcePoint" />
            <mxPoint x="430" y="355" as="targetPoint" />
          </mxGeometry>
        </mxCell>
        <mxCell id="P9rIqunZUvPBB-14v_PH-82" value="" style="endArrow=none;html=1;rounded=0;exitX=0;exitY=0.5;exitDx=0;exitDy=0;entryX=1;entryY=0.5;entryDx=0;entryDy=0;strokeColor=#3584e4;fontFamily=Courier New;" edge="1" parent="1" source="P9rIqunZUvPBB-14v_PH-53" target="P9rIqunZUvPBB-14v_PH-21">
          <mxGeometry width="50" height="50" relative="1" as="geometry">
            <mxPoint x="660" y="375" as="sourcePoint" />
            <mxPoint x="595" y="395" as="targetPoint" />
          </mxGeometry>
        </mxCell>
        <mxCell id="P9rIqunZUvPBB-14v_PH-83" value="" style="endArrow=none;html=1;rounded=0;strokeColor=#ff7800;entryX=1;entryY=0.5;entryDx=0;entryDy=0;exitX=0;exitY=0.5;exitDx=0;exitDy=0;fontFamily=Courier New;" edge="1" parent="1" source="P9rIqunZUvPBB-14v_PH-54" target="P9rIqunZUvPBB-14v_PH-32">
          <mxGeometry width="50" height="50" relative="1" as="geometry">
            <mxPoint x="660" y="215" as="sourcePoint" />
            <mxPoint x="590" y="315" as="targetPoint" />
          </mxGeometry>
        </mxCell>
        <mxCell id="P9rIqunZUvPBB-14v_PH-84" value="" style="endArrow=none;html=1;rounded=0;strokeColor=#ff7800;entryX=1;entryY=0.5;entryDx=0;entryDy=0;exitX=0;exitY=0.5;exitDx=0;exitDy=0;fontFamily=Courier New;" edge="1" parent="1" source="P9rIqunZUvPBB-14v_PH-54" target="P9rIqunZUvPBB-14v_PH-21">
          <mxGeometry width="50" height="50" relative="1" as="geometry">
            <mxPoint x="660" y="255" as="sourcePoint" />
            <mxPoint x="590" y="195" as="targetPoint" />
          </mxGeometry>
        </mxCell>
        <mxCell id="P9rIqunZUvPBB-14v_PH-86" value="" style="endArrow=none;html=1;rounded=0;strokeColor=#c061cb;entryX=1;entryY=0.5;entryDx=0;entryDy=0;exitX=0;exitY=0.5;exitDx=0;exitDy=0;fontFamily=Courier New;" edge="1" parent="1" source="P9rIqunZUvPBB-14v_PH-55" target="P9rIqunZUvPBB-14v_PH-33">
          <mxGeometry width="50" height="50" relative="1" as="geometry">
            <mxPoint x="660" y="255" as="sourcePoint" />
            <mxPoint x="590" y="195" as="targetPoint" />
          </mxGeometry>
        </mxCell>
        <mxCell id="P9rIqunZUvPBB-14v_PH-87" value="" style="endArrow=none;html=1;rounded=0;strokeColor=#c061cb;entryX=1;entryY=0.5;entryDx=0;entryDy=0;exitX=0;exitY=0.5;exitDx=0;exitDy=0;fontFamily=Courier New;" edge="1" parent="1" source="P9rIqunZUvPBB-14v_PH-55" target="P9rIqunZUvPBB-14v_PH-21">
          <mxGeometry width="50" height="50" relative="1" as="geometry">
            <mxPoint x="660" y="295" as="sourcePoint" />
            <mxPoint x="590" y="275" as="targetPoint" />
          </mxGeometry>
        </mxCell>
        <mxCell id="P9rIqunZUvPBB-14v_PH-88" value="" style="endArrow=none;html=1;rounded=0;entryX=0;entryY=0.5;entryDx=0;entryDy=0;exitX=1;exitY=0.5;exitDx=0;exitDy=0;fillColor=#f8cecc;strokeColor=#e01b24;fontFamily=Courier New;" edge="1" parent="1" source="P9rIqunZUvPBB-14v_PH-51" target="P9rIqunZUvPBB-14v_PH-60">
          <mxGeometry width="50" height="50" relative="1" as="geometry">
            <mxPoint x="660" y="175" as="sourcePoint" />
            <mxPoint x="590" y="155" as="targetPoint" />
          </mxGeometry>
        </mxCell>
        <mxCell id="P9rIqunZUvPBB-14v_PH-89" value="" style="endArrow=none;html=1;rounded=0;entryX=0;entryY=0.5;entryDx=0;entryDy=0;exitX=1;exitY=0.5;exitDx=0;exitDy=0;fillColor=#f8cecc;strokeColor=#e01b24;fontFamily=Courier New;dashed=1;" edge="1" parent="1" source="P9rIqunZUvPBB-14v_PH-51" target="P9rIqunZUvPBB-14v_PH-56">
          <mxGeometry width="50" height="50" relative="1" as="geometry">
            <mxPoint x="810" y="175" as="sourcePoint" />
            <mxPoint x="875" y="195" as="targetPoint" />
          </mxGeometry>
        </mxCell>
        <mxCell id="P9rIqunZUvPBB-14v_PH-90" value="" style="endArrow=none;html=1;rounded=0;strokeColor=#33d17a;entryX=0;entryY=0.5;entryDx=0;entryDy=0;exitX=1;exitY=0.5;exitDx=0;exitDy=0;fontFamily=Courier New;" edge="1" parent="1" source="P9rIqunZUvPBB-14v_PH-52" target="P9rIqunZUvPBB-14v_PH-61">
          <mxGeometry width="50" height="50" relative="1" as="geometry">
            <mxPoint x="660" y="215" as="sourcePoint" />
            <mxPoint x="590" y="315" as="targetPoint" />
          </mxGeometry>
        </mxCell>
        <mxCell id="P9rIqunZUvPBB-14v_PH-91" value="" style="endArrow=none;html=1;rounded=0;strokeColor=#33d17a;entryX=0;entryY=0.5;entryDx=0;entryDy=0;exitX=1;exitY=0.5;exitDx=0;exitDy=0;fontFamily=Courier New;dashed=1;" edge="1" parent="1" source="P9rIqunZUvPBB-14v_PH-52" target="P9rIqunZUvPBB-14v_PH-57">
          <mxGeometry width="50" height="50" relative="1" as="geometry">
            <mxPoint x="810" y="215" as="sourcePoint" />
            <mxPoint x="875" y="275" as="targetPoint" />
          </mxGeometry>
        </mxCell>
        <mxCell id="P9rIqunZUvPBB-14v_PH-92" value="" style="endArrow=none;html=1;rounded=0;exitX=1;exitY=0.5;exitDx=0;exitDy=0;entryX=0;entryY=0.5;entryDx=0;entryDy=0;strokeColor=#3584e4;fontFamily=Courier New;dashed=1;" edge="1" parent="1" source="P9rIqunZUvPBB-14v_PH-53" target="P9rIqunZUvPBB-14v_PH-59">
          <mxGeometry width="50" height="50" relative="1" as="geometry">
            <mxPoint x="660" y="375" as="sourcePoint" />
            <mxPoint x="595" y="395" as="targetPoint" />
          </mxGeometry>
        </mxCell>
        <mxCell id="P9rIqunZUvPBB-14v_PH-93" value="" style="endArrow=none;html=1;rounded=0;exitX=1;exitY=0.5;exitDx=0;exitDy=0;entryX=0;entryY=0.5;entryDx=0;entryDy=0;strokeColor=#3584e4;fontFamily=Courier New;dashed=1;" edge="1" parent="1" source="P9rIqunZUvPBB-14v_PH-53" target="P9rIqunZUvPBB-14v_PH-58">
          <mxGeometry width="50" height="50" relative="1" as="geometry">
            <mxPoint x="810" y="375" as="sourcePoint" />
            <mxPoint x="870" y="395" as="targetPoint" />
          </mxGeometry>
        </mxCell>
        <mxCell id="P9rIqunZUvPBB-14v_PH-94" value="" style="endArrow=none;html=1;rounded=0;exitX=1;exitY=0.5;exitDx=0;exitDy=0;entryX=0;entryY=0.5;entryDx=0;entryDy=0;strokeColor=#3584e4;fontFamily=Courier New;" edge="1" parent="1" source="P9rIqunZUvPBB-14v_PH-53" target="P9rIqunZUvPBB-14v_PH-62">
          <mxGeometry width="50" height="50" relative="1" as="geometry">
            <mxPoint x="810" y="375" as="sourcePoint" />
            <mxPoint x="875" y="315" as="targetPoint" />
          </mxGeometry>
        </mxCell>
        <mxCell id="P9rIqunZUvPBB-14v_PH-95" value="" style="endArrow=none;html=1;rounded=0;strokeColor=#ff7800;entryX=0;entryY=0.5;entryDx=0;entryDy=0;exitX=1;exitY=0.5;exitDx=0;exitDy=0;fontFamily=Courier New;" edge="1" parent="1" source="P9rIqunZUvPBB-14v_PH-54" target="P9rIqunZUvPBB-14v_PH-56">
          <mxGeometry width="50" height="50" relative="1" as="geometry">
            <mxPoint x="660" y="255" as="sourcePoint" />
            <mxPoint x="590" y="195" as="targetPoint" />
          </mxGeometry>
        </mxCell>
        <mxCell id="P9rIqunZUvPBB-14v_PH-96" value="" style="endArrow=none;html=1;rounded=0;strokeColor=#ff7800;entryX=0;entryY=0.5;entryDx=0;entryDy=0;exitX=1;exitY=0.5;exitDx=0;exitDy=0;fontFamily=Courier New;dashed=1;" edge="1" parent="1" source="P9rIqunZUvPBB-14v_PH-54" target="P9rIqunZUvPBB-14v_PH-60">
          <mxGeometry width="50" height="50" relative="1" as="geometry">
            <mxPoint x="810" y="255" as="sourcePoint" />
            <mxPoint x="875" y="155" as="targetPoint" />
          </mxGeometry>
        </mxCell>
        <mxCell id="P9rIqunZUvPBB-14v_PH-97" value="" style="endArrow=none;html=1;rounded=0;strokeColor=#c061cb;entryX=0;entryY=0.5;entryDx=0;entryDy=0;exitX=1;exitY=0.5;exitDx=0;exitDy=0;fontFamily=Courier New;" edge="1" parent="1" source="P9rIqunZUvPBB-14v_PH-55" target="P9rIqunZUvPBB-14v_PH-57">
          <mxGeometry width="50" height="50" relative="1" as="geometry">
            <mxPoint x="660" y="295" as="sourcePoint" />
            <mxPoint x="590" y="315" as="targetPoint" />
          </mxGeometry>
        </mxCell>
        <mxCell id="P9rIqunZUvPBB-14v_PH-98" value="" style="endArrow=none;html=1;rounded=0;strokeColor=#c061cb;entryX=0;entryY=0.5;entryDx=0;entryDy=0;exitX=1;exitY=0.5;exitDx=0;exitDy=0;fontFamily=Courier New;dashed=1;" edge="1" parent="1" source="P9rIqunZUvPBB-14v_PH-55" target="P9rIqunZUvPBB-14v_PH-61">
          <mxGeometry width="50" height="50" relative="1" as="geometry">
            <mxPoint x="810" y="295" as="sourcePoint" />
            <mxPoint x="875" y="235" as="targetPoint" />
          </mxGeometry>
        </mxCell>
        <mxCell id="P9rIqunZUvPBB-14v_PH-99" value="&lt;font style=&quot;font-size: 16px;&quot; face=&quot;Times New Roman&quot;&gt;&lt;i&gt;t = 0&lt;/i&gt;&lt;br&gt;&lt;/font&gt;" style="text;html=1;strokeColor=none;fillColor=none;align=center;verticalAlign=middle;whiteSpace=wrap;rounded=0;" vertex="1" parent="1">
          <mxGeometry x="130" y="90" width="60" height="30" as="geometry" />
        </mxCell>
        <mxCell id="P9rIqunZUvPBB-14v_PH-100" value="&lt;font style=&quot;font-size: 16px;&quot; face=&quot;Times New Roman&quot;&gt;&lt;i&gt;t = 1&lt;br&gt;&lt;/i&gt;&lt;/font&gt;" style="text;html=1;strokeColor=none;fillColor=none;align=center;verticalAlign=middle;whiteSpace=wrap;rounded=0;" vertex="1" parent="1">
          <mxGeometry x="315" y="90" width="60" height="30" as="geometry" />
        </mxCell>
        <mxCell id="P9rIqunZUvPBB-14v_PH-101" value="&lt;font style=&quot;font-size: 16px;&quot; face=&quot;Times New Roman&quot;&gt;&lt;i&gt;t = 2&lt;br&gt;&lt;/i&gt;&lt;/font&gt;" style="text;html=1;strokeColor=none;fillColor=none;align=center;verticalAlign=middle;whiteSpace=wrap;rounded=0;" vertex="1" parent="1">
          <mxGeometry x="500" y="90" width="60" height="30" as="geometry" />
        </mxCell>
        <mxCell id="P9rIqunZUvPBB-14v_PH-102" value="&lt;font style=&quot;font-size: 16px;&quot; face=&quot;Times New Roman&quot;&gt;&lt;i&gt;t = 3&lt;br&gt;&lt;/i&gt;&lt;/font&gt;" style="text;html=1;strokeColor=none;fillColor=none;align=center;verticalAlign=middle;whiteSpace=wrap;rounded=0;" vertex="1" parent="1">
          <mxGeometry x="690" y="90" width="60" height="30" as="geometry" />
        </mxCell>
        <mxCell id="P9rIqunZUvPBB-14v_PH-103" value="&lt;font style=&quot;font-size: 16px;&quot; face=&quot;Times New Roman&quot;&gt;&lt;i&gt;t = 4&lt;br&gt;&lt;/i&gt;&lt;/font&gt;" style="text;html=1;strokeColor=none;fillColor=none;align=center;verticalAlign=middle;whiteSpace=wrap;rounded=0;" vertex="1" parent="1">
          <mxGeometry x="885" y="90" width="60" height="30" as="geometry" />
        </mxCell>
      </root>
    </mxGraphModel>
  </diagram>
</mxfile>
